<svg xmlns="http://www.w3.org/2000/svg" xmlns:svg="http://www.w3.org/2000/svg" id="svg2" width="144" height="144" version="1.1"><defs id="defs4"><clipPath id="clipPath4309" clipPathUnits="userSpaceOnUse"><path id="path4311" d="m 139.93694,72.908188 a 67.400818,67.400818 0 1 1 -134.8016403,0 67.400818,67.400818 0 1 1 134.8016403,0 z" transform="matrix(1.0091934,0,0,1.0091934,-1.2029711,906.78372)" style="fill:#00a6e3;fill-opacity:1;fill-rule:evenodd;stroke:none"/></clipPath><clipPath id="clipPath4516" clipPathUnits="userSpaceOnUse"><path style="fill:#00a6e3;fill-opacity:1;stroke:none" id="path4518" d="m 80.399543,63.119017 c -7.849265,14.82065 -6.560509,-2.952402 -19.4839,7.736309 -12.923392,10.688712 4.775875,12.757102 -11.254175,17.686616 -16.03005,4.929515 -2.551316,-6.726643 -19.247595,-8.3068 C 13.717595,78.654984 24.770294,92.632828 9.9496438,84.783564 -4.8710062,76.9343 12.902046,78.223056 2.2133344,65.299665 -8.4753775,52.376273 -10.543767,70.07554 -15.473282,54.04549 -20.402796,38.01544 -8.7466381,51.494174 -7.1664809,34.797895 -5.5863236,18.101616 -19.564168,29.154316 -11.714904,14.333666 -3.8656394,-0.48698443 -5.1543955,17.286068 7.7689962,6.5973561 20.692388,-4.0913558 2.9931211,-6.1597456 19.023171,-11.08926 c 16.03005,-4.929514 2.551316,6.7266436 19.247595,8.3068009 16.696278,1.5801573 5.643579,-12.3976869 20.464229,-4.5484227 14.82065,7.84926413 -2.952402,6.56050809 7.73631,19.4838998 10.688712,12.923392 12.757101,-4.7758752 17.686616,11.254175 4.929514,16.03005 -6.726644,2.551316 -8.306801,19.247594 -1.580157,16.696279 12.397687,5.64358 4.548423,20.46423 z" transform="matrix(1.2951372,-0.11948968,0.11948967,1.2951372,22.894587,25.947628)"/></clipPath><filter id="filter4381"><feGaussianBlur id="feGaussianBlur4383" stdDeviation="2.014"/></filter><clipPath id="clipPath4503" clipPathUnits="userSpaceOnUse"><g id="g4505" transform="matrix(0.92327192,0.38414706,-0.38414706,0.92327192,33.18301,-22.134167)" style="fill:#00a6e3;fill-opacity:1"><g id="g4507" style="fill:#00a6e3;fill-opacity:1"><rect id="rect4509" width="134.962" height="24.874" x="4.519" y="-84.437" transform="matrix(0,1,-1,0,0,0)" style="fill:#00a6e3;fill-opacity:1;stroke:none"/><rect style="fill:#00a6e3;fill-opacity:1;stroke:none" id="rect4511" width="134.962" height="24.874" x="-67.481" y="-114.26" transform="matrix(-0.70710678,0.70710678,-0.70710678,-0.70710678,0,0)"/><rect id="rect4513" width="134.962" height="24.874" x="-169.304" y="-12.437" transform="matrix(-0.70710678,-0.70710678,0.70710678,-0.70710678,0,0)" style="fill:#00a6e3;fill-opacity:1;stroke:none"/></g><g id="g4515" style="fill:#00a6e3;fill-opacity:1"><rect id="rect4517" width="134.962" height="24.874" x="4.519" y="59.563" style="fill:#00a6e3;fill-opacity:1;stroke:none"/><path style="fill:#00a6e3;fill-opacity:1;stroke:none" id="path4519" d="m 128.38251,74.031532 c 0,30.488588 -24.71589,55.204478 -55.204478,55.204478 -30.488592,0 -55.204479,-24.71589 -55.204479,-55.204478 0,-30.488592 24.715887,-55.204479 55.204479,-55.204479 30.488588,0 55.204478,24.715887 55.204478,55.204479 z" transform="translate(-1.1780319,-2.0315323)"/></g></g></clipPath></defs><metadata id="metadata7"/><g id="g4353" transform="matrix(0.92327192,0.38414706,-0.38414706,0.92327192,33.18301,-20.134167)" style="fill:#001821;fill-opacity:1;filter:url(#filter4381);opacity:.5"><g id="g4355" style="fill:#001821;fill-opacity:1"><rect id="rect4357" width="134.962" height="24.874" x="4.519" y="-84.437" transform="matrix(0,1,-1,0,0,0)" style="fill:#001821;fill-opacity:1;stroke:none"/><rect style="fill:#001821;fill-opacity:1;stroke:none" id="rect4359" width="134.962" height="24.874" x="-67.481" y="-114.26" transform="matrix(-0.70710678,0.70710678,-0.70710678,-0.70710678,0,0)"/><rect id="rect4361" width="134.962" height="24.874" x="-169.304" y="-12.437" transform="matrix(-0.70710678,-0.70710678,0.70710678,-0.70710678,0,0)" style="fill:#001821;fill-opacity:1;stroke:none"/></g><g id="g4363" style="fill:#001821;fill-opacity:1"><rect id="rect4365" width="134.962" height="24.874" x="4.519" y="59.563" style="fill:#001821;fill-opacity:1;stroke:none"/><path style="fill:#001821;fill-opacity:1;stroke:none" id="path4367" d="m 128.38251,74.031532 c 0,30.488588 -24.71589,55.204478 -55.204478,55.204478 -30.488592,0 -55.204479,-24.71589 -55.204479,-55.204478 0,-30.488592 24.715887,-55.204479 55.204479,-55.204479 30.488588,0 55.204478,24.715887 55.204478,55.204479 z" transform="translate(-1.1780319,-2.0315323)"/></g></g><g style="fill:#00a6e3;fill-opacity:1" id="g3836" transform="matrix(0.92327192,0.38414706,-0.38414706,0.92327192,33.18301,-22.134167)"><g style="fill:#00a6e3;fill-opacity:1" id="g3823"><rect style="fill:#00a6e3;fill-opacity:1;stroke:none" id="rect3817" width="134.962" height="24.874" x="4.519" y="-84.437" transform="matrix(0,1,-1,0,0,0)"/><rect id="rect3819" width="134.962" height="24.874" x="-67.481" y="-114.26" transform="matrix(-0.70710678,0.70710678,-0.70710678,-0.70710678,0,0)" style="fill:#00a6e3;fill-opacity:1;stroke:none"/><rect style="fill:#00a6e3;fill-opacity:1;stroke:none" id="rect3821" width="134.962" height="24.874" x="-169.304" y="-12.437" transform="matrix(-0.70710678,-0.70710678,0.70710678,-0.70710678,0,0)"/></g><g style="fill:#00a6e3;fill-opacity:1" id="g3832"><rect style="fill:#00a6e3;fill-opacity:1;stroke:none" id="rect3815" width="134.962" height="24.874" x="4.519" y="59.563"/><path id="path3829" d="m 128.38251,74.031532 c 0,30.488588 -24.71589,55.204478 -55.204478,55.204478 -30.488592,0 -55.204479,-24.71589 -55.204479,-55.204478 0,-30.488592 24.715887,-55.204479 55.204479,-55.204479 30.488588,0 55.204478,24.715887 55.204478,55.204479 z" transform="translate(-1.1780319,-2.0315323)" style="fill:#00a6e3;fill-opacity:1;stroke:none"/></g></g><path id="path4520" d="m 121.161,80.290184 a 37.872841,37.872841 0 1 1 -75.745686,0 37.872841,37.872841 0 1 1 75.745686,0 z" transform="translate(-11.288155,-8.290184)" style="opacity:1;fill:#b6b6b6;fill-opacity:1;stroke:none"/><g style="fill:#001821;fill-opacity:1;stroke:none;opacity:.05" id="g4417" clip-path="url(#clipPath4503)"><path id="path4419" d="m 71.939199,37.021737 31.434281,61.956523 70.71068,70.71068 -31.43428,-61.95652 z" style="fill:#001821;fill-opacity:1"/><path id="path4421" d="m 103.37348,98.97826 -30.096655,-4.742463 70.710675,70.710683 30.09666,4.74246 z" style="fill:#001821;fill-opacity:1"/><path id="path4423" d="M 73.276825,94.235797 71.939199,40.609018 142.64988,111.3197 143.9875,164.94648 z" style="fill:#001821;fill-opacity:1"/><path id="path4425" d="m 71.939199,40.609018 -0.729615,53.626779 70.710676,70.710683 0.72962,-53.62678 z" style="fill:#001821;fill-opacity:1"/><path id="path4427" d="m 71.209584,94.235797 -30.583059,4.742463 70.710675,70.71068 30.58306,-4.74246 z" style="fill:#001821;fill-opacity:1"/></g><path style="fill:#fff;fill-opacity:1;stroke:none" id="rect3790" d="M 71.939199,37.021737 103.37348,98.97826 73.276825,94.235797 71.939199,40.609018 71.209584,94.235797 40.626525,98.97826 z"/></svg>