<svg xmlns="http://www.w3.org/2000/svg" xmlns:svg="http://www.w3.org/2000/svg" id="svg2" width="144" height="144" version="1.1"><defs id="defs4"><clipPath id="clipPath4309" clipPathUnits="userSpaceOnUse"><path id="path4311" d="m 139.93694,72.908188 a 67.400818,67.400818 0 1 1 -134.8016403,0 67.400818,67.400818 0 1 1 134.8016403,0 z" transform="matrix(1.0091934,0,0,1.0091934,-1.2029711,906.78372)" style="fill:#00a6e3;fill-opacity:1;fill-rule:evenodd;stroke:none"/></clipPath><clipPath id="clipPath4516" clipPathUnits="userSpaceOnUse"><path style="fill:#00a6e3;fill-opacity:1;stroke:none" id="path4518" d="m 80.399543,63.119017 c -7.849265,14.82065 -6.560509,-2.952402 -19.4839,7.736309 -12.923392,10.688712 4.775875,12.757102 -11.254175,17.686616 -16.03005,4.929515 -2.551316,-6.726643 -19.247595,-8.3068 C 13.717595,78.654984 24.770294,92.632828 9.9496438,84.783564 -4.8710062,76.9343 12.902046,78.223056 2.2133344,65.299665 -8.4753775,52.376273 -10.543767,70.07554 -15.473282,54.04549 -20.402796,38.01544 -8.7466381,51.494174 -7.1664809,34.797895 -5.5863236,18.101616 -19.564168,29.154316 -11.714904,14.333666 -3.8656394,-0.48698443 -5.1543955,17.286068 7.7689962,6.5973561 20.692388,-4.0913558 2.9931211,-6.1597456 19.023171,-11.08926 c 16.03005,-4.929514 2.551316,6.7266436 19.247595,8.3068009 16.696278,1.5801573 5.643579,-12.3976869 20.464229,-4.5484227 14.82065,7.84926413 -2.952402,6.56050809 7.73631,19.4838998 10.688712,12.923392 12.757101,-4.7758752 17.686616,11.254175 4.929514,16.03005 -6.726644,2.551316 -8.306801,19.247594 -1.580157,16.696279 12.397687,5.64358 4.548423,20.46423 z" transform="matrix(1.2951372,-0.11948968,0.11948967,1.2951372,22.894587,25.947628)"/></clipPath><filter id="filter4381"><feGaussianBlur id="feGaussianBlur4383" stdDeviation="2.014"/></filter><clipPath id="clipPath4503" clipPathUnits="userSpaceOnUse"><g id="g4505" transform="matrix(0.92327192,0.38414706,-0.38414706,0.92327192,33.18301,-22.134167)" style="fill:#00a6e3;fill-opacity:1"><g id="g4507" style="fill:#00a6e3;fill-opacity:1"><rect id="rect4509" width="134.962" height="24.874" x="4.519" y="-84.437" transform="matrix(0,1,-1,0,0,0)" style="fill:#00a6e3;fill-opacity:1;stroke:none"/><rect style="fill:#00a6e3;fill-opacity:1;stroke:none" id="rect4511" width="134.962" height="24.874" x="-67.481" y="-114.26" transform="matrix(-0.70710678,0.70710678,-0.70710678,-0.70710678,0,0)"/><rect id="rect4513" width="134.962" height="24.874" x="-169.304" y="-12.437" transform="matrix(-0.70710678,-0.70710678,0.70710678,-0.70710678,0,0)" style="fill:#00a6e3;fill-opacity:1;stroke:none"/></g><g id="g4515" style="fill:#00a6e3;fill-opacity:1"><rect id="rect4517" width="134.962" height="24.874" x="4.519" y="59.563" style="fill:#00a6e3;fill-opacity:1;stroke:none"/><path style="fill:#00a6e3;fill-opacity:1;stroke:none" id="path4519" d="m 128.38251,74.031532 c 0,30.488588 -24.71589,55.204478 -55.204478,55.204478 -30.488592,0 -55.204479,-24.71589 -55.204479,-55.204478 0,-30.488592 24.715887,-55.204479 55.204479,-55.204479 30.488588,0 55.204478,24.715887 55.204478,55.204479 z" transform="translate(-1.1780319,-2.0315323)"/></g></g></clipPath></defs><metadata id="metadata7"/><path style="fill:#fff;fill-opacity:1;stroke:none" id="rect3817" d="M 57.78125 4.875 L 34.78125 14.34375 L 40 27.03125 C 35.096726 30.513416 30.727203 34.80601 27.125 39.84375 L 14.46875 34.59375 L 4.90625 57.5625 L 17.5625 62.84375 C 16.531138 68.946505 16.544543 75.071029 17.53125 81 L 4.875 86.21875 L 14.34375 109.21875 L 27.03125 104 C 30.513416 108.90327 34.80601 113.2728 39.84375 116.875 L 34.59375 129.53125 L 57.5625 139.09375 L 62.8125 126.4375 C 68.925358 127.47413 75.061114 127.45716 81 126.46875 L 86.21875 139.125 L 109.21875 129.65625 L 104 116.96875 C 108.90327 113.48658 113.2728 109.19399 116.875 104.15625 L 129.53125 109.40625 L 139.09375 86.4375 L 126.4375 81.15625 C 127.46886 75.053494 127.45546 68.928971 126.46875 63 L 139.125 57.78125 L 129.65625 34.78125 L 116.96875 40 C 113.48658 35.096726 109.19399 30.727203 104.15625 27.125 L 109.40625 14.46875 L 86.4375 4.90625 L 81.1875 17.5625 C 75.074642 16.52587 68.938886 16.542893 63 17.53125 L 57.78125 4.875 z M 71.9375 26.9375 L 111.5625 105.0625 L 73.625 99.09375 L 71.9375 31.46875 L 71 99.09375 L 32.4375 105.0625 L 71.9375 26.9375 z"/></svg>